<svg width="8" height="5" viewBox="0 0 8 5" fill="none" xmlns="http://www.w3.org/2000/svg">
<path d="M7.68879 1.51799C7.88317 1.32186 7.88176 1.00528 7.68563 0.810888C7.4895 0.616499 7.17292 0.617912 6.97853 0.814043L5.81366 1.98936C5.3409 2.46635 5.01554 2.79355 4.73986 3.01495C4.47206 3.23002 4.30005 3.3038 4.14599 3.32344C4.04926 3.33577 3.95139 3.33577 3.85466 3.32344C3.7006 3.3038 3.52859 3.23002 3.2608 3.01495C2.98511 2.79355 2.65975 2.46635 2.18699 1.98936L1.02212 0.814044C0.82773 0.617912 0.511151 0.6165 0.31502 0.810889C0.118888 1.00528 0.117476 1.32186 0.311865 1.51799L1.49772 2.71447C1.94435 3.16512 2.30938 3.53344 2.63463 3.79465C2.97285 4.06626 3.31614 4.26289 3.72822 4.31541C3.9089 4.33844 4.09175 4.33844 4.27243 4.31541C4.68451 4.26289 5.0278 4.06626 5.36602 3.79465C5.69127 3.53344 6.0563 3.16513 6.50292 2.71448L7.68879 1.51799Z" fill="#111F33"/>
</svg>
