<svg width="8" height="5" viewBox="0 0 8 5" fill="none" xmlns="http://www.w3.org/2000/svg">
<path d="M3.85466 1.67526C3.95139 1.66293 4.04926 1.66293 4.14599 1.67526C4.30005 1.6949 4.47206 1.76868 4.73985 1.98374C5.01554 2.20515 5.3409 2.53235 5.81366 3.00934L6.97853 4.18465C7.17292 4.38079 7.4895 4.3822 7.68563 4.18781C7.88176 3.99342 7.88317 3.67684 7.68879 3.48071L6.50292 2.28422C6.0563 1.83357 5.69127 1.46526 5.36602 1.20405C5.0278 0.932434 4.68451 0.735812 4.27243 0.683288C4.09175 0.660258 3.9089 0.660258 3.72822 0.683288C3.31614 0.735812 2.97285 0.932434 2.63463 1.20405C2.30938 1.46526 1.94435 1.83357 1.49772 2.28423L0.311865 3.48071C0.117476 3.67684 0.118888 3.99342 0.31502 4.18781C0.511151 4.3822 0.82773 4.38079 1.02212 4.18465L2.18699 3.00934C2.65975 2.53235 2.98511 2.20515 3.2608 1.98374C3.52859 1.76868 3.7006 1.6949 3.85466 1.67526Z" fill="#111F33"/>
</svg>
