<svg width="12" height="15" viewBox="0 0 12 15" fill="none" xmlns="http://www.w3.org/2000/svg">
<path fill-rule="evenodd" clip-rule="evenodd" d="M6.00033 0.333984C4.25142 0.333984 2.83366 1.75175 2.83366 3.50065V3.66732H0.666992C0.39085 3.66732 0.166992 3.89118 0.166992 4.16732C0.166992 4.44346 0.39085 4.66732 0.666992 4.66732H11.3337C11.6098 4.66732 11.8337 4.44346 11.8337 4.16732C11.8337 3.89118 11.6098 3.66732 11.3337 3.66732H9.16699V3.50065C9.16699 1.75175 7.74923 0.333984 6.00033 0.333984ZM6.00033 1.33398C7.19694 1.33398 8.16699 2.30403 8.16699 3.50065V3.66732H3.83366V3.50065C3.83366 2.30403 4.80371 1.33398 6.00033 1.33398Z" fill="#F5234B"/>
<path d="M1.83142 5.45336C1.8053 5.17845 1.56127 4.97677 1.28637 5.00289C1.01146 5.02901 0.809781 5.27304 0.835901 5.54794C0.89888 6.2108 1.01254 7.02753 1.15865 8.07736L1.34634 9.42608C1.52579 10.7159 1.62756 11.4474 1.84772 12.0466C2.25746 13.1619 2.98836 14.0559 3.92836 14.4525C4.43881 14.6679 5.02267 14.6677 5.89188 14.6673H6.10877C6.97798 14.6677 7.56184 14.6679 8.07229 14.4525C9.01229 14.0559 9.74319 13.1619 10.1529 12.0466C10.3731 11.4474 10.4749 10.7159 10.6543 9.42605L10.842 8.07737C10.9881 7.02753 11.1018 6.2108 11.1647 5.54795C11.1909 5.27304 10.9892 5.02901 10.7143 5.00289C10.4394 4.97677 10.1954 5.17845 10.1692 5.45336C10.1086 6.092 9.99798 6.88734 9.8499 7.95139L9.67501 9.20808C9.48132 10.5998 9.39262 11.2164 9.21428 11.7018C8.87035 12.6379 8.29846 13.2717 7.6835 13.5312C7.38337 13.6579 7.01977 13.6673 6.00033 13.6673C4.98088 13.6673 4.61728 13.6579 4.31715 13.5312C3.70219 13.2717 3.1303 12.6379 2.78637 11.7018C2.60803 11.2164 2.51933 10.5998 2.32564 9.20808L2.15075 7.9514C2.00267 6.88734 1.8921 6.092 1.83142 5.45336Z" fill="#F5234B"/>
</svg>
