<svg width="16" height="16" viewBox="0 0 16 16" fill="none" xmlns="http://www.w3.org/2000/svg">
<path fill-rule="evenodd" clip-rule="evenodd" d="M4.31497 1.5C2.76031 1.5 1.5 2.76031 1.5 4.31497C1.5 5.10403 1.83117 5.85686 2.41283 6.39004L4.58122 8.37774C5.16667 8.9144 5.5 9.67214 5.5 10.4663V13.3333C5.5 14.5743 6.90791 15.2913 7.91156 14.5614L9.20573 13.6201C9.80947 13.1811 10.1667 12.4796 10.1667 11.7331V10.546C10.1667 9.71257 10.5336 8.92141 11.1698 8.38307L13.5167 6.39724C14.1403 5.86956 14.5 5.09409 14.5 4.27718C14.5 2.74339 13.2566 1.5 11.7228 1.5H4.31497ZM2.5 4.31497C2.5 3.31259 3.31259 2.5 4.31497 2.5H11.7228C12.7043 2.5 13.5 3.29567 13.5 4.27718C13.5 4.79994 13.2698 5.29618 12.8708 5.63385L10.5239 7.61968C9.66311 8.34803 9.16667 9.41842 9.16667 10.546V11.7331C9.16667 12.1597 8.96256 12.5605 8.61756 12.8114L7.32339 13.7526C6.98071 14.0018 6.5 13.7571 6.5 13.3333V10.4663C6.5 9.39183 6.04902 8.36665 5.25694 7.64058L3.08855 5.65289C2.71353 5.30911 2.5 4.82372 2.5 4.31497Z" fill="#111F33"/>
</svg>
